# xmcd
#
# Track frame offsets: 
#        182
#        12790
#        23515
#        39177
#        49687
#        69160
#        83037
#        97550
#        111507
#        131235
#        147035
#        160332
#        173070
#        185472
#        199840
#        212987
#        225222
#        237677
#        260790
#        276747
#
# Disc length: 3853 seconds
#
# Revision: 4
# Processed by: cddbd v1.5.1PL0 Copyright (c) Steve Scherf et al.
# Submitted via: ExactAudioCopy v0.95a4
#
DISCID=120f0b14
DTITLE=Various Artist - Blues Brother Soul Sister Vol.3
DYEAR=1994
DGENRE=Blues
TTITLE0=James Brown - I Got You (I Feel Good )
TTITLE1=Aretha Franklin - Respect
TTITLE2=BB King - Ain't Nobody Home
TTITLE3=Arthur Conley - Sweet Soul Music
TTITLE4=Gladys Knight and The Pips - Midnight Train To Georgia
TTITLE5=Wilson Pickett - Mustang Sally
TTITLE6=Percy Sledge - Warm and Tender Love
TTITLE7=Howlin' Wolf - Smokestack Lightning
TTITLE8=Ray Charles - What'd I Say
TTITLE9=Lorraine Ellison - Stay With Me Baby
TTITLE10=Ike and Tina Turner - Nutbush City Limits
TTITLE11=The Isley Brothers - Who's That Lady
TTITLE12=Muddy Waters - Got My Mojo Working
TTITLE13=Al Green - I'm Still In Love With You
TTITLE14=Carla Thomas - B.A.B.Y.
TTITLE15=The Temptations - My Girl
TTITLE16=Mary Wells - My Guy
TTITLE17=John Lee Hooker - It Serve You Right To Suffer
TTITLE18=Dorothy Moore - Misty Blue
TTITLE19=Otis reading - (Sittin' On) The Dock Of The Bay
EXTD=
EXTT0=
EXTT1=
EXTT2=
EXTT3=
EXTT4=
EXTT5=
EXTT6=
EXTT7=
EXTT8=
EXTT9=
EXTT10=
EXTT11=
EXTT12=
EXTT13=
EXTT14=
EXTT15=
EXTT16=
EXTT17=
EXTT18=
EXTT19=
PLAYORDER=
